<svg width="55" height="55" viewBox="0 0 55 55" fill="none" xmlns="http://www.w3.org/2000/svg">
<path d="M27.3818 50.6118C27.4463 50.6011 27.5537 50.6011 27.6235 50.6118C27.688 50.6226 27.6343 50.6333 27.5 50.6333C27.3657 50.6333 27.312 50.6226 27.3818 50.6118Z" fill="black"/>
<path d="M27.0166 50.354C26.8555 50.252 26.689 50.1714 26.6567 50.166C26.6192 50.166 26.5869 50.1445 26.5869 50.1177C26.5869 50.0908 26.501 50.0371 26.3989 50.0049C26.2969 49.9727 26.2109 49.9189 26.2109 49.8921C26.2109 49.8652 26.1519 49.833 26.0767 49.8115C26.0015 49.7954 25.9424 49.7578 25.9424 49.7363C25.9424 49.7095 25.8887 49.6719 25.8242 49.6504C25.7544 49.6343 25.3193 49.3872 24.8574 49.1133C24.3901 48.8394 24.0088 48.6299 24.0088 48.646C24.0088 48.6675 23.9551 48.6299 23.8906 48.5708C23.8208 48.5063 23.6328 48.3936 23.4717 48.3076C23.3106 48.2271 23.1655 48.1465 23.1494 48.1304C23.1065 48.082 22.811 47.9155 22.6553 47.8511C22.5693 47.8188 22.5049 47.7705 22.5049 47.749C22.5049 47.7275 22.4512 47.6953 22.3814 47.6738C22.3169 47.6577 22.2149 47.604 22.1504 47.5503C22.0913 47.4966 22.0161 47.4482 21.9839 47.4429C21.957 47.4375 21.7261 47.3086 21.479 47.1582C21.2319 47.0132 20.9956 46.8896 20.9634 46.8896C20.9258 46.8896 20.8936 46.8682 20.8936 46.8413C20.8936 46.8145 20.8399 46.7715 20.7754 46.75C20.7056 46.7285 20.6411 46.7017 20.625 46.6802C20.6089 46.6641 20.5068 46.5996 20.3994 46.5459C20.2866 46.4868 20.1953 46.4224 20.1953 46.3955C20.1953 46.374 20.1524 46.3525 20.0986 46.3525C20.0396 46.3525 19.9536 46.3042 19.8999 46.2451C19.8462 46.186 19.7925 46.1484 19.7764 46.1592C19.7495 46.1914 19.3252 45.9282 19.2715 45.8477C19.25 45.8154 19.2285 45.8047 19.2285 45.8262C19.2285 45.8477 19.0405 45.7563 18.815 45.6221C18.5894 45.4824 18.353 45.3535 18.294 45.3267C18.2295 45.2998 18.1113 45.23 18.02 45.1709C17.9341 45.1118 17.8159 45.0474 17.7676 45.0312C17.7139 45.0098 17.6709 44.9722 17.6709 44.9453C17.6709 44.9185 17.6494 44.9131 17.6172 44.9292C17.5903 44.9453 17.5635 44.9399 17.5635 44.9131C17.5635 44.8809 17.499 44.8325 17.4185 44.8003C17.3325 44.7681 17.2305 44.7197 17.1875 44.6929C16.9082 44.5103 15.4365 43.6724 15.3989 43.6724C15.3775 43.6724 15.2808 43.6133 15.1948 43.5381C15.1035 43.4575 14.9961 43.3984 14.9531 43.3984C14.9102 43.3984 14.8779 43.377 14.8779 43.3501C14.8779 43.3286 14.7759 43.2642 14.647 43.2158C14.5181 43.1675 14.3677 43.0869 14.3086 43.0332C14.2549 42.9849 14.1475 42.9097 14.0723 42.8774C13.9434 42.813 13.5083 42.5713 12.9712 42.2598C12.8316 42.1738 12.6973 42.1094 12.6704 42.1094C12.6436 42.1094 12.6221 42.0879 12.6221 42.0664C12.6221 42.0127 12.3535 41.8677 12.2891 41.8838C12.2622 41.8892 12.2461 41.873 12.2461 41.8462C12.2461 41.8193 12.1817 41.771 12.1011 41.7388C11.9346 41.6743 11.7788 41.583 11.666 41.481C11.6284 41.4434 11.5586 41.4111 11.5156 41.4111C11.4727 41.4111 11.4404 41.3843 11.4404 41.3467C11.4404 41.3145 11.4243 41.2983 11.4082 41.3198C11.376 41.3521 10.8335 41.0405 10.8067 40.9707C10.7959 40.9492 10.7529 40.9277 10.7153 40.9277C10.6724 40.9277 10.6079 40.8955 10.5703 40.8579C10.5327 40.8257 10.3662 40.7236 10.2051 40.6377C9.72706 40.396 9.58741 40.3101 9.5713 40.2725C9.56056 40.251 9.46925 40.208 9.3672 40.1758C9.26515 40.1436 9.18458 40.0898 9.18458 40.063C9.18458 40.0361 9.15236 40.0146 9.10939 40.0146C9.06642 40.0146 8.99659 39.9824 8.959 39.9395C8.91603 39.9019 8.83009 39.8481 8.76564 39.832C8.70118 39.8105 8.64747 39.7676 8.64747 39.7407C8.64747 39.7139 8.61525 39.6924 8.57765 39.6924C8.49171 39.6924 7.76661 39.2627 7.74513 39.1982C7.73439 39.1768 7.69679 39.1553 7.66456 39.1553C7.45509 39.1553 7.46046 39.3594 7.46046 27.5215C7.46046 18.1812 7.4712 16.0972 7.53029 16.0112C7.61622 15.8877 8.30372 15.415 8.39503 15.415C8.43263 15.415 8.51857 15.3667 8.58302 15.3076C8.64747 15.2432 8.70118 15.2109 8.70118 15.2217C8.70118 15.2378 8.84083 15.168 9.00734 15.0659C9.17921 14.9639 9.34034 14.8779 9.36183 14.8779C9.38331 14.8779 9.45314 14.8296 9.51222 14.7759C9.57667 14.7168 9.78615 14.5933 9.9795 14.4966C10.1782 14.3999 10.3501 14.3086 10.3662 14.2925C10.4092 14.2441 10.5972 14.1313 10.7422 14.0669C10.812 14.04 10.8872 13.9971 10.9033 13.9756C10.9356 13.9326 11.0967 13.8413 11.6016 13.5835C11.7949 13.4814 11.9614 13.3848 11.9776 13.3687C12.0259 13.3096 12.9497 12.7832 12.9981 12.7832C13.0303 12.7832 13.0518 12.7617 13.0518 12.7295C13.0518 12.7026 13.1109 12.665 13.186 12.6436C13.2612 12.6274 13.3203 12.5952 13.3203 12.5737C13.3203 12.5522 13.3526 12.5308 13.3901 12.5308C13.4546 12.5308 14.1797 12.1064 14.2334 12.0366C14.2495 12.0151 14.3677 11.9561 14.502 11.897C14.6362 11.8379 14.7813 11.7573 14.8242 11.7144C14.8672 11.6768 14.98 11.6069 15.0713 11.5693C15.168 11.5264 15.2647 11.4727 15.2808 11.4404C15.3023 11.4082 15.3399 11.3975 15.3667 11.4136C15.3936 11.4351 15.4151 11.4189 15.4151 11.3921C15.4151 11.3599 15.4473 11.333 15.4902 11.333C15.5332 11.333 15.603 11.3008 15.6406 11.2686C15.7534 11.1611 15.9092 11.0698 16.0757 11.0054C16.1563 10.9731 16.2207 10.9248 16.2207 10.8979C16.2207 10.8711 16.2529 10.8496 16.2905 10.8496C16.3281 10.8496 16.4839 10.7637 16.645 10.6616C16.8008 10.5596 16.9512 10.4736 16.978 10.4736C17.0049 10.4736 17.0264 10.4521 17.0264 10.4307C17.0264 10.4038 17.0586 10.3823 17.0962 10.3823C17.1284 10.3823 17.4238 10.2212 17.7461 10.0171C18.0684 9.81836 18.3584 9.65186 18.3906 9.64648C18.4766 9.63574 18.874 9.38867 18.8955 9.33496C18.9063 9.31348 18.9546 9.29199 19.0083 9.29199C19.0567 9.29199 19.1533 9.24365 19.2178 9.18457C19.2822 9.12549 19.3574 9.07715 19.3843 9.07715C19.4111 9.07715 19.4702 9.04492 19.5132 9.00195C19.5562 8.95898 19.6367 8.91602 19.6904 8.90527C19.7442 8.89453 19.8301 8.84619 19.8784 8.79785C19.9214 8.74951 20.0234 8.69043 20.104 8.67432C20.1846 8.65283 20.249 8.61523 20.249 8.59375C20.249 8.56689 20.2974 8.5293 20.3618 8.51318C20.4209 8.4917 20.5767 8.40576 20.7002 8.31982C20.8291 8.23926 20.9902 8.14258 21.0601 8.11035C21.2051 8.05127 21.3877 7.93848 21.4307 7.89014C21.479 7.83643 21.7261 7.71289 21.7691 7.72363C21.7905 7.729 21.8067 7.71289 21.8067 7.68066C21.8067 7.65381 21.8442 7.62695 21.8872 7.62695C21.9302 7.62695 21.9678 7.6001 21.9678 7.57324C21.9678 7.54102 21.9893 7.5249 22.0161 7.53027C22.0376 7.54102 22.3706 7.36377 22.752 7.13281C23.1333 6.90723 23.5523 6.6709 23.6865 6.60107C23.8208 6.53125 23.939 6.46143 23.9551 6.44531C23.9873 6.40234 24.2559 6.25732 24.4546 6.17139C24.5352 6.13916 24.5996 6.09082 24.5996 6.06396C24.5996 6.03711 24.6318 6.01562 24.6694 6.01562C24.7124 6.01562 24.7984 5.96729 24.8682 5.9082C24.938 5.84912 25.0132 5.80078 25.0401 5.80078C25.0669 5.80078 25.3731 5.63428 25.7222 5.4248C26.0659 5.2207 26.3775 5.04883 26.4151 5.04883C26.4526 5.04883 26.4795 5.02734 26.4795 4.99512C26.4795 4.96826 26.5386 4.93066 26.6138 4.90918C26.689 4.89307 26.7481 4.86084 26.7481 4.83936C26.7481 4.80176 26.979 4.66748 27.0703 4.646C27.0864 4.646 27.1724 4.59766 27.2691 4.54932C27.3657 4.50098 27.4785 4.45801 27.5269 4.45801C27.6128 4.45801 28.0371 4.66748 28.0908 4.73193C28.1069 4.75342 28.2036 4.80713 28.3057 4.85547C28.585 4.98438 28.9663 5.20459 29.0039 5.2583C29.02 5.28516 29.1167 5.34424 29.2188 5.39258C29.3208 5.43555 29.5786 5.5752 29.7827 5.69336C29.9922 5.81152 30.2124 5.92969 30.2822 5.96191C30.3467 5.98877 30.4541 6.06396 30.5239 6.12305C30.5884 6.1875 30.6958 6.24658 30.7603 6.2627C30.8301 6.28418 30.8838 6.31641 30.8838 6.34326C30.8838 6.37012 30.8999 6.38623 30.9268 6.38086C30.9859 6.37012 31.2598 6.50977 31.2598 6.55811C31.2598 6.57959 31.3189 6.61182 31.3941 6.62793C31.4692 6.64941 31.5283 6.68701 31.5283 6.71924C31.5283 6.75146 31.5498 6.76221 31.5713 6.74609C31.5982 6.72998 31.6841 6.77832 31.77 6.85352C31.856 6.92871 31.958 6.97168 31.9956 6.96094C32.0332 6.94482 32.0654 6.9502 32.0654 6.97168C32.0654 7.02002 33.2632 7.73438 33.3491 7.73438C33.3814 7.73438 33.4082 7.75586 33.4082 7.77734C33.4082 7.8042 33.4995 7.86328 33.6123 7.91162C33.8809 8.02979 34.2837 8.27148 34.332 8.34668C34.3535 8.37891 34.375 8.38965 34.375 8.36816C34.375 8.34668 34.5952 8.45947 34.8584 8.62061C35.127 8.78174 35.3633 8.92139 35.3848 8.92676C35.4063 8.93213 35.5459 9.0127 35.6963 9.10938C35.8467 9.20605 36.0776 9.34033 36.2066 9.40479C36.3355 9.47461 36.4536 9.54443 36.4697 9.56055C36.502 9.60352 36.7705 9.74854 36.9692 9.83447C37.0498 9.8667 37.1143 9.91504 37.1143 9.94189C37.1143 9.96875 37.1411 9.99023 37.1787 9.99023C37.2109 9.99023 37.5493 10.1729 37.9253 10.3931C38.3013 10.6133 38.6343 10.7959 38.6665 10.7959C38.6987 10.7959 38.7256 10.8228 38.7256 10.855C38.7256 10.8818 38.7525 10.8926 38.7793 10.8765C38.8115 10.8604 38.833 10.8657 38.833 10.8926C38.833 10.9248 38.8975 10.9731 38.9834 11.0054C39.1445 11.0698 39.3003 11.1611 39.4131 11.2632C39.4507 11.3008 39.5205 11.333 39.5635 11.333C39.6065 11.333 39.6387 11.3491 39.6387 11.376C39.6387 11.3975 39.7192 11.4512 39.8159 11.4888C40.0469 11.5908 40.5195 11.8809 40.541 11.9346C40.5518 11.9561 40.6001 11.9775 40.6484 11.9775C40.6914 11.9775 40.772 12.0098 40.815 12.0474C40.9546 12.1602 41.9107 12.7134 42.0449 12.751C42.1094 12.7725 42.1631 12.8101 42.1631 12.8369C42.1631 12.8584 42.2168 12.8906 42.2866 12.9121C42.3511 12.9282 42.4531 12.9819 42.5176 13.0356C42.5767 13.0894 42.6519 13.1377 42.6841 13.1431C42.7109 13.1484 42.9419 13.2773 43.189 13.4277C43.436 13.5728 43.6724 13.6963 43.71 13.6963C43.7422 13.6963 43.7744 13.7124 43.7744 13.7393C43.7744 13.7769 44.3008 14.0938 44.3706 14.0991C44.3867 14.0991 44.4404 14.1421 44.4942 14.1958C44.5479 14.2441 44.6123 14.2764 44.6392 14.2603C44.666 14.2388 44.6875 14.2495 44.6875 14.271C44.6875 14.2979 44.7788 14.3623 44.8916 14.4214C44.999 14.4805 45.1226 14.561 45.1602 14.5986C45.2031 14.6362 45.2568 14.6523 45.2837 14.6309C45.3106 14.6147 45.3482 14.6362 45.3643 14.6792C45.3804 14.7222 45.4985 14.7974 45.6328 14.8511C45.7617 14.8994 45.8692 14.9639 45.8692 14.9907C45.8692 15.0176 45.896 15.0391 45.9282 15.0391C45.9605 15.0391 46.186 15.1572 46.4277 15.3076C46.6694 15.4526 46.9273 15.5977 47.0025 15.6299C47.2764 15.748 47.5288 15.9575 47.5396 16.0811C47.5664 16.6558 47.5288 39.0103 47.4966 39.064C47.4751 39.1016 47.3731 39.1821 47.2817 39.2358C47.1851 39.2949 47.1045 39.3594 47.1045 39.3809C47.1045 39.4023 47.0776 39.4238 47.0454 39.4238C47.0186 39.4238 46.7608 39.5581 46.4815 39.7192C46.2075 39.8804 45.9766 39.9932 45.9766 39.9771C45.9766 39.9556 45.9175 39.9985 45.8423 40.0684C45.7671 40.1382 45.708 40.1704 45.708 40.1436C45.708 40.1167 45.6865 40.1221 45.6651 40.1489C45.6113 40.2241 45.4448 40.3262 45.2676 40.396C45.1817 40.4282 45.1172 40.4766 45.1172 40.5034C45.1172 40.5303 45.0903 40.5518 45.0581 40.5518C45.0205 40.5518 44.8003 40.6646 44.564 40.8096C44.3276 40.9492 44.1182 41.062 44.1021 41.0566C44.0859 41.0566 44.0269 41.0942 43.9732 41.1479C43.9194 41.1963 43.7153 41.3198 43.5166 41.4165C43.3179 41.5186 43.146 41.6099 43.1299 41.626C43.1138 41.6421 43.0171 41.7012 42.9151 41.7549C42.813 41.814 42.7163 41.873 42.7002 41.8892C42.6841 41.9053 42.5337 41.9966 42.3672 42.0825C42.1953 42.1738 42.0557 42.2598 42.0557 42.2812C42.0557 42.3027 42.0181 42.3081 41.9751 42.292C41.9321 42.2705 41.8945 42.2812 41.8945 42.3081C41.8945 42.3564 41.4273 42.6411 41.3198 42.6572C41.293 42.6626 41.2339 42.7056 41.1802 42.7539C41.1265 42.8076 40.9492 42.915 40.7774 43.001C40.6109 43.0815 40.439 43.1836 40.4014 43.2212C40.3638 43.2588 40.294 43.291 40.251 43.291C40.208 43.291 40.1758 43.3125 40.1758 43.3394C40.1758 43.3662 40.0899 43.4199 39.9878 43.4521C39.8858 43.4844 39.7998 43.5381 39.7998 43.5649C39.7998 43.5918 39.773 43.6133 39.7407 43.6133C39.7085 43.6133 39.4614 43.7476 39.1875 43.9087C38.919 44.0698 38.6665 44.2041 38.6289 44.2041C38.5913 44.2041 38.5645 44.2256 38.5645 44.2524C38.5645 44.2793 38.5108 44.3223 38.4463 44.3438C38.3765 44.3652 38.2529 44.4297 38.1616 44.4941C38.0757 44.5586 37.9629 44.6123 37.9199 44.623C37.877 44.6338 37.8179 44.6768 37.7964 44.7197C37.7695 44.7627 37.7319 44.7842 37.6997 44.7681C37.6729 44.7466 37.6514 44.7573 37.6514 44.7842C37.6514 44.8164 37.5923 44.854 37.5171 44.8701C37.4419 44.8916 37.3828 44.9292 37.3828 44.9561C37.3828 44.9883 37.356 45.0098 37.3237 45.0098C37.2915 45.0098 37.1948 45.0581 37.1089 45.1226C37.023 45.1816 36.9317 45.2192 36.9102 45.2031C36.8833 45.187 36.8296 45.2246 36.792 45.2837C36.749 45.3374 36.6953 45.3857 36.6685 45.3857C36.6416 45.3857 36.2764 45.5898 35.8467 45.8423C35.4224 46.0947 35.0195 46.3257 34.9551 46.3579C34.7725 46.4385 34.5791 46.5513 34.4341 46.6587C34.3643 46.7124 34.2891 46.75 34.273 46.7446C34.2568 46.7393 34.1924 46.7822 34.1333 46.8359C34.0742 46.8896 34.0098 46.938 33.9829 46.938C33.9077 46.9434 33.3814 47.2388 32.6992 47.6577C32.4199 47.8242 32.1675 47.9639 32.1299 47.9639C32.0923 47.9639 32.0654 47.9907 32.0654 48.0176C32.0654 48.0498 32.0332 48.0713 31.9956 48.0713C31.9634 48.0713 31.813 48.1519 31.6734 48.2539C31.5337 48.356 31.3565 48.4526 31.2866 48.4688C31.2114 48.4902 31.1524 48.5278 31.1524 48.5547C31.1524 48.5869 31.1255 48.6084 31.0933 48.6084C31.061 48.6084 30.8086 48.7427 30.5347 48.9038C30.2554 49.0649 30.0137 49.1992 29.9976 49.1992C29.9761 49.1992 29.8794 49.2637 29.7774 49.3389C29.6753 49.4194 29.5947 49.4624 29.5947 49.4409C29.5947 49.4248 29.5571 49.4463 29.5088 49.4893C29.4658 49.5376 29.396 49.5752 29.3584 49.5752C29.3154 49.5752 29.2564 49.6128 29.2134 49.6611C29.1758 49.7095 29.0523 49.7847 28.9395 49.8276C28.8267 49.8706 28.7354 49.9297 28.7354 49.9565C28.7354 49.9834 28.7139 49.9995 28.6924 49.9941C28.6655 49.9834 28.5151 50.0586 28.354 50.1606C27.645 50.6118 27.4785 50.6333 27.0166 50.354ZM28.3755 49.0059C28.4238 48.9844 28.4668 48.9521 28.4668 48.9253C28.4668 48.8984 28.499 48.877 28.542 48.877C28.585 48.877 28.6548 48.8447 28.6924 48.8071C28.73 48.7695 28.8428 48.7051 28.9395 48.6675C29.0308 48.6299 29.1113 48.5762 29.1113 48.5493C29.1113 48.5225 29.1436 48.501 29.1865 48.501C29.2295 48.501 29.2993 48.4688 29.3369 48.4365C29.3745 48.3989 29.4981 48.3184 29.6109 48.2646C29.7183 48.2056 29.8096 48.1411 29.8096 48.1143C29.8096 48.0874 29.8311 48.0767 29.8633 48.0981C29.8901 48.1143 29.9546 48.0874 30.0083 48.0337C30.062 47.98 30.2124 47.8887 30.3467 47.8296C30.481 47.7705 30.6045 47.7007 30.626 47.6685C30.6475 47.6416 30.669 47.6362 30.669 47.6631C30.669 47.6899 30.728 47.6577 30.8032 47.5879C30.8784 47.5181 30.9375 47.4805 30.9375 47.502C30.9375 47.5234 30.9912 47.4912 31.0557 47.4321C31.1148 47.373 31.19 47.3354 31.2168 47.3516C31.2383 47.3677 31.2598 47.3516 31.2598 47.3247C31.2598 47.2925 31.2974 47.2656 31.3403 47.2656C31.3833 47.2656 31.4209 47.2388 31.4209 47.2065C31.4209 47.1797 31.4478 47.1689 31.4746 47.1851C31.5068 47.2012 31.5283 47.1904 31.5283 47.1636C31.5283 47.1313 31.5606 47.1045 31.6035 47.1045C31.6465 47.1045 31.6895 47.0776 31.7002 47.0454C31.7109 47.0186 31.7539 46.9863 31.8023 46.981C31.8452 46.9702 32.1406 46.8145 32.4468 46.6318C32.7583 46.4492 33.043 46.2988 33.0806 46.2988C33.1182 46.2988 33.1343 46.2827 33.1235 46.2559C33.1074 46.2344 33.2525 46.1431 33.4404 46.0571C33.6284 45.9658 33.7842 45.8799 33.7842 45.8584C33.7842 45.8315 33.8164 45.8154 33.854 45.8154C33.897 45.8154 33.999 45.7563 34.0796 45.6865C34.1655 45.6113 34.2515 45.563 34.2783 45.5791C34.2998 45.5952 34.3589 45.5576 34.4126 45.4932C34.4663 45.4341 34.5361 45.3857 34.5737 45.3857C34.6436 45.3857 35.0679 45.1387 35.127 45.0688C35.1431 45.0527 35.186 45.0312 35.2236 45.0205C35.2988 45.0098 35.6856 44.7627 35.8359 44.6338C35.9111 44.5747 35.9326 44.4727 35.9326 44.188C35.9326 43.7852 35.981 43.6509 36.1958 43.4629C36.3086 43.3608 36.3784 43.3394 36.5396 43.3608C36.7651 43.3931 37.0068 43.5757 37.0068 43.7261C37.0068 43.7744 37.0552 43.8281 37.1196 43.8442C37.2485 43.8818 37.3828 43.8389 37.3828 43.7637C37.3828 43.7368 37.4097 43.7314 37.4365 43.7476C37.4688 43.7637 37.4902 43.7529 37.4902 43.7261C37.4902 43.6938 37.5225 43.667 37.5654 43.667C37.6084 43.667 37.6782 43.6348 37.7158 43.6025C37.7588 43.5649 37.9199 43.4629 38.0811 43.377C38.2422 43.291 38.4033 43.189 38.4409 43.146C38.4732 43.103 38.5161 43.0708 38.5322 43.0708C38.5859 43.0762 39.0693 42.8345 39.1714 42.7539C39.2251 42.7109 39.2734 42.6841 39.2788 42.7002C39.2842 42.7163 39.3486 42.6733 39.4238 42.6089C39.4937 42.5391 39.5796 42.4854 39.6172 42.4854C39.6494 42.4854 39.7085 42.4478 39.7461 42.4048C39.7837 42.3618 39.8535 42.3242 39.9019 42.3242C39.9556 42.3242 40.0415 42.2812 40.1006 42.2275C40.1543 42.1738 40.2188 42.1309 40.2402 42.1309C40.2617 42.1362 40.3262 42.0986 40.3799 42.0557C40.4336 42.0127 40.6162 41.9053 40.7827 41.814C40.9492 41.728 41.0889 41.6367 41.0889 41.6152C41.0889 41.5884 41.1157 41.5723 41.148 41.5723C41.1802 41.5723 41.3467 41.4917 41.5186 41.3896C41.6904 41.2876 41.8462 41.2178 41.8623 41.2339C41.8784 41.2554 41.8945 41.2393 41.8945 41.207C41.8945 41.1694 41.9321 41.1426 41.9751 41.1426C42.0181 41.1426 42.0557 41.1211 42.0557 41.0889C42.0557 41.062 42.1148 41.0244 42.19 41.0029C42.2651 40.9868 42.3242 40.9492 42.3242 40.9277C42.3242 40.9062 42.4317 40.8472 42.5659 40.7988C42.7002 40.7451 42.8076 40.6807 42.8076 40.6538C42.8076 40.627 42.8452 40.6055 42.8882 40.6055C42.9312 40.6055 42.9688 40.584 42.9688 40.5518C42.9688 40.5249 42.9956 40.498 43.0278 40.498C43.0601 40.498 43.4253 40.2993 43.8389 40.0576C44.2578 39.8105 44.6123 39.6118 44.6284 39.6172C44.6445 39.6172 44.709 39.5742 44.7627 39.5205C44.8218 39.4668 44.897 39.4238 44.9346 39.4238C44.9722 39.4238 45.0366 39.3916 45.0796 39.3486C45.1172 39.3057 45.2837 39.2036 45.4448 39.123C45.606 39.0425 45.7456 38.9619 45.7617 38.9458C45.8047 38.8975 46.0947 38.7363 46.2451 38.6719C46.3203 38.6396 46.4116 38.5483 46.4439 38.4678C46.4976 38.355 46.5137 37.0498 46.5244 33.0322L46.5405 27.7417L46.4224 27.6772C46.3579 27.645 46.2559 27.6289 46.1968 27.645C46.0303 27.688 45.7241 27.4678 45.6543 27.2583C45.6006 27.1025 45.606 27.0488 45.6865 26.9146C45.7402 26.8286 45.8369 26.7266 45.9067 26.689C45.9766 26.6514 46.0303 26.603 46.0303 26.5762C46.0303 26.5493 46.0518 26.5386 46.0733 26.5547C46.1001 26.5708 46.2075 26.5063 46.315 26.4097L46.5191 26.2378L46.5298 21.7959L46.5405 17.3486L46.3955 17.2896C46.315 17.2573 46.2075 17.2412 46.1592 17.2627C45.9927 17.3271 45.6704 17.0747 45.6543 16.8599C45.6328 16.6235 45.6543 16.5537 45.7886 16.4302C45.9443 16.2798 45.9605 16.1938 45.8316 16.1455C45.7295 16.1133 45.5415 16.0005 45.4932 15.9468C45.4771 15.9307 45.3804 15.8716 45.2783 15.8125C45.1763 15.7588 45.0581 15.6782 45.0205 15.6406C44.9829 15.6084 44.9185 15.5762 44.8809 15.5762C44.8379 15.5762 44.7788 15.5386 44.7412 15.4956C44.7036 15.4526 44.6553 15.4312 44.6284 15.4473C44.6016 15.4634 44.5801 15.4526 44.5801 15.4258C44.5801 15.3936 44.521 15.356 44.4458 15.3398C44.3706 15.3184 44.3115 15.2808 44.3115 15.2539C44.3115 15.2217 44.2739 15.2002 44.231 15.2002C44.188 15.2002 44.1504 15.1733 44.1504 15.1411C44.1504 15.1143 44.1289 15.1035 44.0967 15.1196C44.0698 15.1357 44.043 15.1304 44.043 15.1089C44.043 15.082 43.9785 15.0337 43.898 14.9961C43.6401 14.8887 43.2695 14.6631 43.2266 14.5933C43.2051 14.561 43.1836 14.5449 43.1836 14.5664C43.1836 14.5879 43.0386 14.5234 42.8667 14.4214C42.6895 14.3193 42.523 14.2334 42.4907 14.2334C42.4585 14.2334 42.4317 14.2119 42.4317 14.1797C42.4317 14.1528 42.3726 14.1152 42.2974 14.0938C42.2222 14.0776 42.1631 14.04 42.1631 14.0078C42.1631 13.981 42.1416 13.9756 42.1094 13.9917C42.0825 14.0078 42.0557 14.0024 42.0557 13.9702C42.0557 13.938 41.9966 13.9004 41.9214 13.8789C41.8462 13.8628 41.7871 13.8252 41.7871 13.7983C41.7871 13.7715 41.7495 13.75 41.7066 13.75C41.6636 13.75 41.626 13.7231 41.626 13.6909C41.626 13.6641 41.6045 13.6479 41.583 13.6641C41.5562 13.6802 41.481 13.6426 41.4219 13.5835C41.3574 13.5244 41.3037 13.4922 41.3037 13.5083C41.3037 13.5298 41.2393 13.4976 41.1587 13.4438C41.0728 13.3901 40.9439 13.3096 40.8633 13.2666C40.7774 13.229 40.7129 13.1753 40.7129 13.1484C40.7129 13.127 40.6807 13.1055 40.6377 13.1055C40.5947 13.1055 40.5195 13.0679 40.4766 13.0195C40.4282 12.9766 40.3906 12.9497 40.3906 12.9658C40.3906 12.9819 40.2725 12.9229 40.1275 12.8369C39.9878 12.7456 39.8428 12.6758 39.8052 12.6758C39.773 12.6758 39.7461 12.6543 39.7461 12.6328C39.7461 12.6113 39.5957 12.5093 39.4131 12.4126C38.9673 12.1816 38.8652 12.1226 38.8223 12.0581C38.7954 12.0205 38.7793 12.0205 38.7793 12.0581C38.7793 12.0957 38.7632 12.0957 38.7363 12.0581C38.7149 12.0312 38.5591 11.9346 38.3872 11.854C38.0488 11.6875 37.9146 11.6875 37.7158 11.8701C37.6514 11.9292 37.5977 11.9668 37.5977 11.9453C37.5977 11.9292 37.5386 11.9507 37.4634 11.999C37.3023 12.1064 37.0176 12.1064 36.8779 12.0044C36.7598 11.9131 36.6524 11.7144 36.6631 11.6016C36.6631 11.5586 36.6738 11.478 36.6738 11.4297C36.6792 11.3813 36.749 11.2793 36.8296 11.2041L36.9692 11.0752L36.8135 10.9355C36.7276 10.8604 36.6148 10.7959 36.5664 10.7959C36.5127 10.7959 36.4697 10.7744 36.4697 10.7529C36.4697 10.7261 36.3784 10.6616 36.271 10.6025C36.1582 10.5488 36.0508 10.479 36.0347 10.4575C36.0186 10.4307 35.9702 10.4092 35.9273 10.3984C35.8467 10.3877 35.5191 10.1943 35.4116 10.103C35.374 10.0708 35.3203 10.0439 35.2935 10.0439C35.2666 10.0439 35.2075 10.0117 35.1699 9.97949C35.127 9.94189 34.9497 9.83984 34.7778 9.74854C34.6006 9.6626 34.4448 9.57129 34.4287 9.55518C34.4126 9.53906 34.2676 9.45312 34.1065 9.36719C33.9453 9.28125 33.7842 9.1792 33.7412 9.14697C33.7036 9.10938 33.6338 9.07715 33.5908 9.07715C33.5479 9.07715 33.5156 9.05029 33.5156 9.01807C33.5156 8.99121 33.4942 8.98047 33.4619 8.99658C33.4351 9.0127 33.4082 9.00195 33.4082 8.9751C33.4082 8.94287 33.3706 8.91602 33.3276 8.91602C33.2847 8.91602 33.2471 8.88916 33.2471 8.85156C33.2471 8.81934 33.231 8.80859 33.2095 8.82471C33.1934 8.84619 33.1397 8.83008 33.0967 8.79785C32.9946 8.71191 32.812 8.60449 32.6992 8.56152C32.6455 8.54541 32.6026 8.50244 32.6026 8.47559C32.6026 8.44873 32.5811 8.43799 32.5596 8.4541C32.5327 8.47021 32.4629 8.43262 32.3984 8.37891C32.334 8.31982 32.2534 8.27148 32.2212 8.27148C32.1836 8.27148 32.1138 8.23926 32.0708 8.19629C32.0225 8.15332 31.9473 8.11035 31.9043 8.09961C31.8613 8.08887 31.7861 8.0459 31.7378 8.00293C31.6841 7.95996 31.5015 7.85254 31.335 7.76123C31.1631 7.67529 30.9912 7.56787 30.9483 7.53027C30.9107 7.49805 30.8408 7.46582 30.7979 7.46582C30.7549 7.46582 30.7227 7.44434 30.7227 7.41211C30.7227 7.38525 30.6636 7.34766 30.5884 7.32617C30.5132 7.31006 30.4541 7.27246 30.4541 7.25098C30.4541 7.22949 30.395 7.19189 30.3252 7.17578C30.25 7.15967 30.1587 7.11133 30.1211 7.07373C30.0781 7.0415 29.9761 6.97168 29.8901 6.92334C29.3692 6.65479 29.1328 6.52051 29.1113 6.49365C29.0952 6.47217 28.9502 6.3916 28.7891 6.30566C28.6279 6.21973 28.4829 6.13379 28.4776 6.10693C28.4668 6.08545 28.4346 6.08008 28.4077 6.10156C28.3809 6.11768 28.3594 6.10156 28.3594 6.07471C28.3594 6.04248 28.3218 6.01562 28.2788 6.01562C28.2359 6.01562 28.1983 5.99414 28.1983 5.97266C28.1983 5.92969 27.9512 5.78467 27.8599 5.7793C27.8384 5.77393 27.8008 5.7417 27.7739 5.7041C27.7256 5.62354 27.3442 5.59668 27.2959 5.67188C27.2744 5.69873 27.167 5.76855 27.0596 5.82227C26.9468 5.88135 26.8555 5.9458 26.8555 5.97266C26.8555 5.99414 26.834 6.01025 26.8125 6.00488C26.7642 5.98877 26.3775 6.17676 26.2861 6.25732C26.2539 6.28955 26.1089 6.37549 25.9639 6.44531C25.8189 6.52051 25.6685 6.61182 25.6309 6.64941C25.5933 6.68164 25.5234 6.71387 25.4805 6.71387C25.4375 6.71387 25.4053 6.74072 25.4053 6.76758C25.4053 6.7998 25.3838 6.82129 25.3569 6.82129C25.3301 6.82129 25.1851 6.90723 25.0293 7.00928C24.8735 7.11133 24.7178 7.19727 24.6748 7.19727C24.6318 7.19727 24.5996 7.22412 24.5996 7.25635C24.5996 7.2832 24.5781 7.29932 24.5567 7.2832C24.5298 7.26709 24.46 7.29932 24.4009 7.35303C24.3418 7.40674 24.186 7.49805 24.0571 7.55713C23.9282 7.61621 23.7832 7.69678 23.7402 7.73975C23.6973 7.78809 23.4932 7.90625 23.2837 8.0083C23.0796 8.11035 22.9024 8.20703 22.8916 8.23389C22.8809 8.25537 22.8379 8.27148 22.7949 8.27148C22.752 8.27148 22.7197 8.29297 22.7197 8.31445C22.7197 8.34131 22.5586 8.44336 22.3599 8.54004C22.1558 8.64209 21.9893 8.74414 21.9785 8.76562C21.9678 8.78711 21.9248 8.80859 21.8818 8.80859C21.8389 8.80859 21.8067 8.83545 21.8067 8.86768C21.8067 8.89453 21.7852 8.91064 21.7637 8.89453C21.7368 8.87842 21.667 8.91602 21.6026 8.96973C21.5381 9.02881 21.4522 9.07715 21.4092 9.07715C21.3662 9.07715 21.3071 9.11475 21.2803 9.16309C21.2534 9.21143 21.2158 9.24365 21.1997 9.24365C21.103 9.23291 21.0654 9.24365 20.958 9.3457C20.8936 9.41016 20.8399 9.44238 20.8399 9.42627C20.8399 9.41016 20.7432 9.4585 20.625 9.53369C20.5068 9.60889 20.4102 9.65723 20.4102 9.64111C20.4102 9.625 20.3618 9.65723 20.3027 9.71094C20.2383 9.75928 20.1792 9.7915 20.1577 9.78613C20.1416 9.77539 20.1094 9.7915 20.0933 9.82373C20.0557 9.88281 19.6743 10.1138 19.4326 10.2158C19.3467 10.2534 19.2822 10.3018 19.2822 10.3286C19.2822 10.3501 19.2608 10.3555 19.2285 10.3394C19.2017 10.3232 19.1748 10.334 19.1748 10.3608C19.1748 10.3931 19.1372 10.4199 19.0943 10.4199C19.0513 10.4199 19.0137 10.4414 19.0137 10.4683C19.0137 10.4951 18.9277 10.5488 18.8257 10.5811C18.7236 10.6133 18.6377 10.6616 18.6377 10.6831C18.6377 10.6992 18.5733 10.7476 18.4927 10.7852C18.0469 10.9893 18.0147 11.043 18.2349 11.2471C18.4282 11.4243 18.4175 11.7144 18.2134 11.9238C17.9878 12.1602 17.73 12.1279 17.1338 11.7842C16.9673 11.6875 16.7417 11.7251 16.5859 11.8701C16.5215 11.9292 16.4409 11.9775 16.4033 11.9775C16.3657 11.9775 16.3013 12.0098 16.2637 12.0474C16.2261 12.085 16.1133 12.1494 16.022 12.187C15.9253 12.2246 15.8447 12.2837 15.8447 12.3105C15.8447 12.3374 15.8233 12.3481 15.8018 12.332C15.7749 12.3159 15.7051 12.3535 15.6406 12.4072C15.5762 12.4663 15.5117 12.5146 15.4956 12.5146C15.4741 12.5146 15.3184 12.6006 15.1411 12.7026C14.9693 12.8047 14.8242 12.8691 14.8242 12.8477C14.8242 12.8262 14.8027 12.8423 14.7813 12.8745C14.7383 12.939 14.3784 13.1592 14.1367 13.2666C14.0669 13.2935 13.9756 13.3579 13.9326 13.4009C13.8843 13.4438 13.8145 13.4814 13.7715 13.4814C13.7285 13.4814 13.6963 13.5029 13.6963 13.5298C13.6963 13.5566 13.6211 13.605 13.5298 13.6372C13.4439 13.6694 13.2612 13.7661 13.127 13.8574C12.9927 13.9434 12.8745 14.0186 12.8638 14.0186C12.853 14.0186 12.7188 14.0884 12.5684 14.1797C12.4234 14.2656 12.2998 14.3193 12.2998 14.2979C12.2998 14.2764 12.2783 14.2871 12.2568 14.3193C12.2031 14.4053 11.4834 14.8403 11.4028 14.8403C11.3652 14.8403 11.333 14.8618 11.333 14.8833C11.333 14.9048 11.2363 14.9639 11.1182 15.0176C11 15.0713 10.9033 15.1304 10.9033 15.1465C10.9033 15.1626 10.8174 15.2109 10.7153 15.2539C10.6133 15.2969 10.5274 15.3452 10.5274 15.3667C10.5274 15.3882 10.4683 15.4204 10.3931 15.4365C10.3179 15.458 10.2588 15.4956 10.2588 15.5225C10.2588 15.5547 10.2319 15.5762 10.1997 15.5762C10.1245 15.5762 9.41017 15.9897 9.22755 16.1401C9.09327 16.2529 9.09327 16.2637 9.18995 16.3335C9.24366 16.3711 9.292 16.4355 9.292 16.4731C9.292 16.5107 9.31886 16.543 9.35109 16.543C9.37794 16.543 9.39406 16.5645 9.37257 16.5913C9.35646 16.6182 9.3672 16.6558 9.39406 16.6772C9.52833 16.7578 9.17921 17.2305 8.97511 17.2466C8.76564 17.2627 8.54005 17.3379 8.54005 17.3916C8.52931 17.7676 8.54005 26.3345 8.55079 26.3398C8.56154 26.3398 8.61525 26.3721 8.67433 26.4097C8.73341 26.4473 8.89454 26.5386 9.02882 26.6138C9.18458 26.7051 9.30275 26.8232 9.35646 26.9468C9.43702 27.1187 9.43702 27.1509 9.36183 27.3174C9.31349 27.4141 9.25441 27.4839 9.22755 27.4678C9.20607 27.4517 9.18458 27.4624 9.18458 27.4893C9.18458 27.5537 8.93751 27.6611 8.78175 27.6611C8.71193 27.6611 8.62599 27.6719 8.58302 27.688C8.4756 27.731 8.49171 38.4194 8.6045 38.5269C8.71193 38.6396 9.13087 38.8921 9.13087 38.8491C9.13087 38.833 9.18995 38.8706 9.25978 38.9351C9.3296 38.9995 9.42628 39.0586 9.46925 39.0693C9.51759 39.0747 9.59816 39.1177 9.65187 39.166C9.70558 39.2144 9.80226 39.2681 9.87208 39.2842C9.93654 39.3057 9.99025 39.3433 9.99025 39.3701C9.99025 39.3916 10.0493 39.4292 10.1245 39.4453C10.1997 39.4668 10.2588 39.5044 10.2588 39.5366C10.2588 39.5688 10.2857 39.5742 10.3125 39.5581C10.3447 39.542 10.3662 39.5474 10.3662 39.5742C10.3662 39.6064 10.4253 39.644 10.5005 39.6602C10.5757 39.6816 10.6348 39.7192 10.6348 39.7461C10.6348 39.7783 10.6616 39.7998 10.6992 39.7998C10.7315 39.7998 11.0698 39.9824 11.4458 40.2026C11.8218 40.4229 12.1548 40.6055 12.187 40.6055C12.2193 40.6055 12.2461 40.627 12.2461 40.6538C12.2461 40.6807 12.2998 40.7236 12.3696 40.7451C12.4341 40.7666 12.4985 40.7935 12.5147 40.8149C12.5523 40.8579 12.8316 41.019 13.0142 41.0996C13.0947 41.1372 13.1592 41.1855 13.1592 41.207C13.1592 41.2285 13.186 41.25 13.2183 41.25C13.2451 41.25 13.6426 41.4702 14.0938 41.7334C14.5449 42.002 14.9424 42.2168 14.9746 42.2168C15.0122 42.2168 15.0391 42.2329 15.0391 42.2598C15.0391 42.3027 15.1572 42.3726 15.4849 42.5176C15.5923 42.5659 15.6836 42.625 15.6836 42.6465C15.6836 42.6733 15.7427 42.7056 15.8179 42.7217C15.8931 42.7432 15.9522 42.7808 15.9522 42.8076C15.9522 42.8398 15.9844 42.8613 16.0274 42.8613C16.0703 42.8613 16.1401 42.8936 16.1777 42.9312C16.2207 42.9634 16.3926 43.0708 16.5645 43.1567C16.731 43.248 16.919 43.3608 16.978 43.4146C17.0317 43.4629 17.0908 43.5059 17.1069 43.5005C17.1607 43.4897 17.5259 43.6831 17.6387 43.7905C17.6978 43.8389 17.7783 43.8818 17.8213 43.8818C17.9126 43.8818 18.0523 43.7476 18.0093 43.6992C17.9878 43.6831 18.0039 43.667 18.0361 43.667C18.0737 43.667 18.1006 43.6401 18.1006 43.6079C18.1006 43.5703 18.1543 43.5005 18.2241 43.4414C18.396 43.291 18.7666 43.334 18.9331 43.5273C19.0352 43.6455 19.0567 43.7368 19.062 44.1021C19.0674 44.3599 19.0996 44.564 19.1372 44.6016C19.2178 44.6821 20.1148 45.2246 20.1685 45.2246C20.1846 45.2246 20.2813 45.2837 20.3779 45.3589C20.4746 45.4341 20.5713 45.4771 20.5874 45.4556C20.6089 45.4395 20.625 45.4502 20.625 45.4824C20.625 45.5146 20.7109 45.5684 20.813 45.6006C20.9151 45.6328 21.001 45.6865 21.001 45.7134C21.001 45.7402 21.0332 45.7617 21.0708 45.7617C21.1138 45.7617 21.2158 45.8208 21.2964 45.8906C21.3823 45.9658 21.4629 46.0195 21.479 46.0195C21.5274 46.0088 21.9356 46.2129 22.0108 46.2881C22.0484 46.3203 22.1074 46.3525 22.1397 46.3525C22.1719 46.3525 22.2417 46.4062 22.2954 46.4707C22.3545 46.5298 22.3975 46.5674 22.3975 46.5459C22.3975 46.5244 22.4673 46.5566 22.5532 46.6157C22.6392 46.6802 22.7359 46.7285 22.7681 46.7285C22.8057 46.7285 22.8809 46.7769 22.9453 46.8359C23.0098 46.8896 23.0796 46.9272 23.1065 46.9111C23.1279 46.895 23.1494 46.9111 23.1494 46.938C23.1494 46.9702 23.187 46.9971 23.23 46.9971C23.273 46.9971 23.3106 47.0186 23.3106 47.04C23.3106 47.0669 23.4556 47.1582 23.6328 47.2441C23.8101 47.3301 23.9551 47.416 23.9551 47.4429C23.9551 47.4644 23.9873 47.4805 24.0249 47.4805C24.0679 47.4805 24.1538 47.5288 24.2236 47.5879C24.2935 47.647 24.374 47.6953 24.4009 47.6953C24.4492 47.6953 25.0025 48.0068 25.8027 48.4956C25.9746 48.5977 26.1519 48.689 26.2002 48.6997C26.2485 48.7051 26.2969 48.7373 26.3076 48.7642C26.3184 48.7964 26.3613 48.8232 26.3989 48.8232C26.4419 48.8232 26.5117 48.8608 26.5601 48.9092C26.603 48.9575 26.7212 49.0005 26.8125 49.0059C26.9522 49.0112 26.9898 48.9897 27.0166 48.877C27.0542 48.7212 27.355 48.501 27.5322 48.501C27.6021 48.501 27.7095 48.5493 27.7632 48.603C27.8223 48.6621 27.8814 48.6943 27.8975 48.6782C27.9136 48.6567 27.9297 48.6675 27.9297 48.6943C27.9297 48.8018 28.1499 49.0972 28.2144 49.0703C28.252 49.0542 28.3218 49.022 28.3755 49.0059Z" fill="black"/>
<path d="M27.2744 46.7661C26.9951 46.6587 26.9521 46.4761 26.9736 45.4985C26.9844 44.8486 27.0059 44.6123 27.0596 44.5908C27.0918 44.5801 27.1133 44.5532 27.0972 44.5264C27.0596 44.4619 27.3174 44.3115 27.5054 44.29C27.6182 44.2793 27.7095 44.3062 27.7686 44.3652C27.8223 44.4189 27.8813 44.4512 27.8975 44.4351C27.9136 44.4136 27.9297 44.4404 27.9297 44.4834C27.9297 44.5317 27.9512 44.5801 27.978 44.5908C28.0264 44.6069 28.064 46.2666 28.021 46.46C27.9941 46.605 27.9082 46.7017 27.7524 46.7715C27.5752 46.8467 27.4731 46.8467 27.2744 46.7661Z" fill="black"/>
<path d="M27.2207 42.5229C27.167 42.48 27.124 42.4316 27.124 42.4102C27.124 42.3887 27.0864 42.335 27.0435 42.292C26.979 42.2275 26.9629 42.0718 26.9629 41.5991C26.9629 41.1265 26.979 40.9707 27.0435 40.9062C27.0864 40.8633 27.124 40.7935 27.124 40.7451C27.124 40.6431 27.5107 40.5303 27.6772 40.584C27.7417 40.6055 27.8491 40.6807 27.9189 40.7505C28.0264 40.8687 28.0371 40.9277 28.0371 41.5132C28.0371 41.9536 28.0103 42.2061 27.9565 42.3296C27.9136 42.4316 27.8813 42.4907 27.876 42.4585C27.876 42.4316 27.8545 42.437 27.8276 42.48C27.7632 42.582 27.3335 42.6143 27.2207 42.5229Z" fill="black"/>
<path d="M18.3047 41.5884C18.1919 41.54 18.0898 41.4595 18.0737 41.4058C18.0146 41.2285 17.9985 39.4238 18.0522 39.4238C18.0791 39.4238 18.1006 39.3916 18.1006 39.354C18.1006 39.2681 18.3799 39.1016 18.5303 39.1016C18.6914 39.1016 18.9438 39.2466 19.0137 39.3755C19.0781 39.4937 19.0942 41.1211 19.0298 41.2876C18.9922 41.4004 18.7612 41.626 18.6914 41.626C18.6699 41.626 18.6162 41.6367 18.5732 41.6475C18.5356 41.6582 18.4121 41.6313 18.3047 41.5884Z" fill="black"/>
<path d="M36.2764 41.5884C35.9702 41.438 35.9326 41.2984 35.9326 40.3906C35.9326 39.5366 35.9541 39.4292 36.1904 39.2251C36.3462 39.0801 36.5181 39.0693 36.7383 39.1821C37.0122 39.3218 37.0498 39.4668 37.0444 40.4121C37.0444 41.1694 37.0337 41.2769 36.9424 41.3682C36.8887 41.4219 36.8457 41.4863 36.8457 41.5132C36.8457 41.5401 36.7866 41.5776 36.7168 41.5938C36.647 41.6099 36.5557 41.6367 36.5127 41.6475C36.4751 41.6636 36.3677 41.6367 36.2764 41.5884Z" fill="black"/>
<path d="M27.4195 38.3657C27.2476 38.3281 26.7481 38.0703 26.7481 38.0166C26.7481 37.9951 26.7212 37.9736 26.6836 37.9736C26.6353 37.9736 25.7652 37.4956 25.4053 37.27C25.3623 37.2432 25.2818 37.2056 25.2334 37.1894C25.1797 37.168 25.1367 37.1304 25.1367 37.0981C25.1367 37.0659 25.1206 37.0552 25.1045 37.0767C25.0884 37.0928 25.024 37.0605 24.9595 37.0068C24.9004 36.9477 24.836 36.9155 24.8145 36.9263C24.793 36.937 24.7285 36.8994 24.6641 36.8457C24.5996 36.7866 24.5137 36.7383 24.4707 36.7383C24.4331 36.7383 24.3794 36.7007 24.3633 36.6523C24.3472 36.6094 24.3096 36.5879 24.2774 36.604C24.2505 36.6201 24.2237 36.6147 24.2237 36.5879C24.2237 36.5557 24.1646 36.5181 24.0894 36.5019C24.0142 36.4805 23.9551 36.4429 23.9551 36.416C23.9551 36.3838 23.9229 36.3623 23.8799 36.3623C23.8369 36.3623 23.7671 36.3301 23.7242 36.2871C23.6812 36.2441 23.6006 36.2012 23.5469 36.1904C23.4932 36.1797 23.4341 36.1582 23.418 36.1421C23.3643 36.0723 22.4781 35.5566 22.4136 35.5566C22.376 35.5566 22.3438 35.5351 22.3438 35.5083C22.3438 35.4814 22.2901 35.4385 22.2256 35.417C22.1558 35.3955 22.0913 35.3633 22.0752 35.3472C22.0591 35.3257 21.9087 35.2397 21.7422 35.1538C21.5703 35.0732 21.4307 34.9819 21.4307 34.9604C21.4307 34.939 21.377 34.9121 21.3072 34.8906C21.2427 34.8745 21.1407 34.8208 21.0816 34.7671C21.0225 34.7134 20.9258 34.6597 20.8667 34.6543C20.8076 34.6435 20.7486 34.6167 20.7325 34.5952C20.6895 34.5415 20.4102 34.3696 20.4102 34.4018C20.4102 34.4126 20.3618 34.3857 20.3028 34.332C20.2383 34.2837 20.1846 34.2515 20.1792 34.2676C20.1685 34.2837 20.0826 34.23 19.9859 34.144C19.8892 34.0635 19.7549 33.9829 19.6797 33.9668C19.6099 33.9507 19.5508 33.9131 19.5508 33.8808C19.5508 33.854 19.5293 33.8433 19.5078 33.8594C19.481 33.8755 19.4112 33.8433 19.3575 33.7949C19.3037 33.7412 19.1748 33.666 19.0835 33.6284C18.9868 33.5908 18.9063 33.5371 18.9063 33.5102C18.9063 33.4834 18.8741 33.4619 18.8311 33.4619C18.7881 33.4619 18.7183 33.4297 18.6807 33.3975C18.6431 33.3599 18.5249 33.2847 18.4175 33.2309C18.0147 33.0268 18.0469 33.5102 18.0415 27.5C18.0362 22.8701 18.0469 22.102 18.1167 22.0268C18.2295 21.8979 18.4229 21.7475 18.4229 21.7851C18.4229 21.8066 18.5034 21.7583 18.6055 21.6777C18.7076 21.6025 18.8096 21.5381 18.8365 21.5381C18.8633 21.5381 19.0996 21.4038 19.3628 21.2427C19.6314 21.0815 19.8731 20.9473 19.9107 20.9473C19.9429 20.9473 20.0074 20.915 20.045 20.8828C20.1577 20.7808 20.3081 20.6841 20.5176 20.5928C20.6197 20.5444 20.7163 20.4907 20.7325 20.4692C20.7486 20.4531 20.8775 20.3779 21.0171 20.3027C21.1621 20.2275 21.3179 20.1308 21.3716 20.0879C21.42 20.0449 21.4898 20.0019 21.5274 19.9912C21.6241 19.9751 22.043 19.7065 22.086 19.6367C22.1075 19.6045 22.1289 19.5991 22.1289 19.626C22.1289 19.6528 22.1665 19.6421 22.2095 19.6045C22.2525 19.5669 22.2901 19.5508 22.2901 19.5723C22.2901 19.5884 22.333 19.5669 22.3867 19.5239C22.4351 19.4809 22.4888 19.4487 22.5049 19.4541C22.521 19.4595 22.5855 19.4165 22.6553 19.3628C22.7198 19.3037 22.795 19.2554 22.8218 19.2554C22.8433 19.2554 22.9239 19.2124 22.9937 19.1587C23.1602 19.0351 23.3535 18.9277 23.5415 18.8472C23.6221 18.8149 23.6866 18.7666 23.6866 18.7344C23.6866 18.7075 23.708 18.7021 23.7403 18.7183C23.7725 18.7344 23.794 18.7236 23.794 18.6968C23.794 18.6645 23.8262 18.6377 23.8692 18.6377C23.9121 18.6377 23.9551 18.6216 23.9659 18.6001C23.9766 18.5732 24.1431 18.4712 24.3418 18.3691C24.5459 18.2671 24.7071 18.165 24.7071 18.1435C24.7071 18.1167 24.7339 18.1006 24.7661 18.1006C24.8037 18.1006 24.9488 18.0308 25.0884 17.9394C25.2334 17.8535 25.3516 17.7998 25.3516 17.8213C25.3516 17.8428 25.3731 17.832 25.3946 17.8052C25.459 17.7139 25.8833 17.456 25.9639 17.456C26.0015 17.456 26.0552 17.4184 26.0713 17.3701C26.0874 17.3271 26.125 17.3003 26.1519 17.3164C26.1787 17.3379 26.2378 17.311 26.2808 17.2681C26.3291 17.2251 26.3882 17.1875 26.4204 17.1875C26.4527 17.1875 26.4795 17.166 26.4795 17.1338C26.4795 17.1069 26.5117 17.0801 26.5547 17.0801C26.5977 17.0801 26.6675 17.0478 26.7051 17.0102C26.7427 16.9726 26.9361 16.8706 27.1348 16.79C27.5591 16.6128 27.645 16.6235 28.1446 16.9136C28.3379 17.0264 28.5474 17.1392 28.6172 17.1553C28.6817 17.1767 28.7354 17.2197 28.7354 17.2466C28.7354 17.2734 28.7676 17.2949 28.8052 17.2949C28.8482 17.2949 28.9502 17.354 29.0308 17.4238C29.1167 17.499 29.2027 17.5474 29.2241 17.5366C29.2456 17.5205 29.2886 17.542 29.3208 17.585C29.3584 17.6279 29.4444 17.6763 29.5142 17.6924C29.5894 17.7139 29.6485 17.7515 29.6485 17.7783C29.6485 17.8105 29.6861 17.832 29.729 17.832C29.772 17.832 29.8096 17.8589 29.8096 17.8911C29.8096 17.918 29.8311 17.9341 29.8526 17.918C29.8794 17.9018 29.9492 17.9287 30.003 17.9824C30.062 18.0308 30.1372 18.0791 30.1695 18.0845C30.2017 18.0898 30.4864 18.2563 30.8033 18.4497C31.1255 18.6431 31.4156 18.7988 31.4585 18.7988C31.4961 18.7988 31.5283 18.8257 31.5283 18.8525C31.5283 18.8848 31.5606 18.9062 31.6035 18.9062C31.6465 18.9062 31.6895 18.9277 31.7002 18.9492C31.7163 19.0029 31.9312 19.1265 32.2427 19.2607C32.3501 19.3144 32.4414 19.3735 32.4414 19.4004C32.4414 19.4219 32.479 19.4433 32.522 19.4433C32.565 19.4433 32.6026 19.4702 32.6026 19.5024C32.6026 19.5293 32.6294 19.54 32.6563 19.5239C32.6885 19.5078 32.71 19.5185 32.71 19.5454C32.71 19.5776 32.7368 19.6045 32.7691 19.6045C32.8013 19.6045 33.0484 19.7334 33.3223 19.8945C33.5908 20.0557 33.8594 20.206 33.9185 20.2275C33.9722 20.249 34.0581 20.3027 34.1065 20.3403C34.1494 20.3779 34.2085 20.4101 34.2354 20.4048C34.2622 20.4048 34.2998 20.4209 34.3159 20.4477C34.3589 20.5015 34.6275 20.6572 34.8208 20.7378C34.9014 20.77 34.9658 20.8183 34.9658 20.8452C34.9658 20.8721 35.0034 20.8935 35.0464 20.8935C35.0894 20.8935 35.127 20.9204 35.127 20.9526C35.127 20.9795 35.1485 20.9956 35.17 20.9795C35.1968 20.9634 35.272 21.001 35.3311 21.06C35.3955 21.1191 35.4492 21.1514 35.4492 21.1352C35.4492 21.1138 35.5191 21.1514 35.605 21.2104C35.6909 21.2749 35.7769 21.3232 35.793 21.3232C35.8252 21.3232 36.2549 21.5918 36.3086 21.6455C36.3247 21.6616 36.4536 21.7314 36.5987 21.8066C37.1035 22.0591 37.0659 21.5381 37.0498 27.5698L37.0337 32.8818L36.8672 33.0215C36.5074 33.3223 36.3838 33.4082 36.1636 33.4941C36.0347 33.5425 35.9326 33.6016 35.9326 33.623C35.9326 33.6445 35.8736 33.6821 35.7984 33.6982C35.7232 33.7197 35.6641 33.7573 35.6641 33.7842C35.6641 33.8164 35.6372 33.8379 35.605 33.8379C35.5728 33.8379 35.2989 33.9829 34.9981 34.1601C34.6919 34.3374 34.418 34.4824 34.3858 34.4824C34.3482 34.4824 34.3213 34.5039 34.3213 34.5308C34.3213 34.5576 34.2676 34.6006 34.2032 34.6221C34.1387 34.6382 34.0528 34.6919 34.0098 34.7295C33.9722 34.7725 33.9077 34.8047 33.8701 34.8047C33.8325 34.8047 33.7574 34.853 33.7036 34.9121C33.6499 34.9712 33.5747 35.0195 33.5318 35.0195C33.4888 35.0195 33.4082 35.0679 33.3438 35.1269C33.2793 35.1807 33.2095 35.2183 33.1826 35.2021C33.1612 35.186 33.1397 35.2021 33.1397 35.229C33.1397 35.2612 33.1021 35.2881 33.0591 35.2881C33.0161 35.2881 32.9785 35.3149 32.9785 35.3418C32.9785 35.374 32.9463 35.3955 32.9033 35.3955C32.8604 35.3955 32.7906 35.4277 32.753 35.4653C32.7154 35.5029 32.6026 35.5674 32.5113 35.605C32.4146 35.6426 32.334 35.7017 32.334 35.7339C32.334 35.7661 32.3179 35.7715 32.3018 35.7554C32.2803 35.7339 32.1997 35.7661 32.1245 35.8144C31.8506 36.0024 30.7388 36.6308 30.6743 36.6308C30.6421 36.6308 30.6153 36.6577 30.6153 36.6846C30.6153 36.7168 30.5777 36.7383 30.5347 36.7383C30.4917 36.7383 30.4541 36.7651 30.4541 36.7974C30.4541 36.8242 30.4326 36.835 30.4004 36.8188C30.3736 36.8027 30.3467 36.8135 30.3467 36.8403C30.3467 36.8725 30.3091 36.8994 30.2661 36.8994C30.2232 36.8994 30.1856 36.9263 30.1856 36.9531C30.1856 36.9853 30.1695 37.0015 30.148 36.9961C30.0835 36.98 29.7022 37.1841 29.7022 37.2324C29.7022 37.2539 29.67 37.2754 29.627 37.2754C29.584 37.2754 29.541 37.2915 29.5303 37.3183C29.5142 37.3613 29.1704 37.5386 29.0845 37.5547C29.0576 37.56 28.9986 37.5976 28.961 37.6352C28.9234 37.6728 28.8535 37.7051 28.8106 37.7051C28.7676 37.7051 28.7354 37.7266 28.7354 37.748C28.7354 37.7856 27.9619 38.2583 27.876 38.2744C27.8599 38.2744 27.7793 38.3066 27.6988 38.3389C27.6128 38.3765 27.543 38.3979 27.5376 38.3979C27.5323 38.3926 27.4785 38.3818 27.4195 38.3657ZM28.3057 36.8188C28.3433 36.7759 28.3916 36.749 28.4131 36.7651C28.4346 36.7759 28.5205 36.7329 28.6065 36.6577C28.687 36.5879 28.773 36.5395 28.7891 36.5503C28.8106 36.561 28.875 36.5288 28.9341 36.4751C28.9932 36.4214 29.0899 36.3569 29.1543 36.3408C29.2188 36.3193 29.2725 36.2764 29.2725 36.2495C29.2725 36.2226 29.3047 36.2012 29.3423 36.2012C29.3745 36.2012 29.6485 36.0561 29.9439 35.8789C30.2393 35.7017 30.5132 35.5566 30.5508 35.5566C30.583 35.5566 30.6153 35.5351 30.6153 35.5029C30.6153 35.4761 30.6743 35.4385 30.7495 35.417C30.8247 35.4009 30.8838 35.3633 30.8838 35.3418C30.8838 35.3149 30.9698 35.2666 31.0718 35.2344C31.1739 35.2021 31.2598 35.1538 31.2598 35.1323C31.2598 35.1162 31.3242 35.0679 31.4102 35.0303C31.6626 34.9228 32.0332 34.6973 32.0762 34.6274C32.0977 34.5952 32.1192 34.5845 32.1192 34.6113C32.1192 34.6382 32.1568 34.6274 32.1997 34.5898C32.2427 34.5522 32.2803 34.5415 32.2803 34.5683C32.2803 34.5952 32.3018 34.5898 32.3233 34.5576C32.3662 34.4878 33.0591 34.0581 33.1504 34.0366C33.188 34.0312 33.2632 33.9829 33.3223 33.9292C33.3867 33.8755 33.4888 33.8218 33.5533 33.8057C33.6231 33.7842 33.6768 33.7573 33.6768 33.7358C33.6768 33.7143 33.8218 33.623 33.9991 33.5371C34.1763 33.4512 34.3213 33.3652 34.3213 33.3437C34.3213 33.3169 34.3535 33.3008 34.3965 33.3008C34.4395 33.3008 34.5093 33.2685 34.5469 33.2309C34.5845 33.1933 34.6973 33.1289 34.794 33.0913C34.8853 33.0537 34.9658 33 34.9658 32.9731C34.9658 32.9463 34.9981 32.9248 35.041 32.9248C35.084 32.9248 35.1538 32.8926 35.1914 32.8603C35.2344 32.8227 35.4009 32.7207 35.5674 32.6348C35.7339 32.5488 35.895 32.4253 35.9219 32.3608C36.0025 32.1836 36.0078 23.5361 35.9273 23.4394C35.895 23.3965 35.836 23.3642 35.7984 23.3642C35.7608 23.3642 35.3794 23.5683 34.9497 23.8208C34.52 24.0732 34.1441 24.2773 34.1118 24.2773C34.0796 24.2773 34.0528 24.2988 34.0528 24.3257C34.0528 24.3525 33.9668 24.4062 33.8648 24.4385C33.7627 24.4707 33.6768 24.519 33.6768 24.5459C33.6768 24.5727 33.6231 24.6103 33.5586 24.6318C33.4888 24.6533 33.4243 24.6855 33.4082 24.7016C33.3921 24.7231 33.2471 24.8091 33.086 24.8896C32.9248 24.9756 32.7476 25.0884 32.6939 25.1421C32.6402 25.2012 32.5757 25.2334 32.5542 25.2226C32.5327 25.2065 32.4575 25.2441 32.3985 25.3032C32.334 25.3623 32.2803 25.3945 32.2803 25.3784C32.2803 25.3677 32.1245 25.4482 31.9312 25.5664C31.7378 25.6846 31.5821 25.7598 31.5821 25.7383C31.5821 25.7168 31.5606 25.7275 31.5391 25.7598C31.4961 25.8242 31.0933 26.0713 30.8731 26.168C30.7871 26.2056 30.7227 26.2539 30.7227 26.2808C30.7227 26.3022 30.7012 26.3076 30.669 26.2915C30.6421 26.2754 30.6153 26.2861 30.6153 26.313C30.6153 26.3452 30.583 26.3721 30.5401 26.3721C30.4971 26.3721 30.4541 26.3882 30.4434 26.415C30.438 26.4365 30.2715 26.5332 30.0782 26.6352C29.8848 26.7319 29.7183 26.8286 29.7022 26.8501C29.6753 26.8823 29.4766 26.9951 29.1543 27.1616C29.0684 27.2046 29.0039 27.2637 29.0039 27.2959C29.0039 27.3281 28.9878 27.3389 28.9663 27.3227C28.9502 27.3013 28.9019 27.312 28.8589 27.3442C28.8213 27.3765 28.7891 27.3872 28.7891 27.3711C28.7891 27.3496 28.7408 27.3818 28.6817 27.4355C28.6226 27.4892 28.4668 27.5859 28.3379 27.6504C28.1983 27.7202 28.0908 27.8169 28.0694 27.8921C28.0264 28.0478 28.0264 36.6201 28.0694 36.7812C28.107 36.9155 28.209 36.937 28.3057 36.8188ZM26.8985 36.7812C26.9951 36.6846 26.9898 27.8975 26.8985 27.8008C26.791 27.6987 26.0767 27.2851 26.0069 27.2851C25.9693 27.2851 25.9424 27.2637 25.9424 27.2314C25.9424 27.2046 25.9048 27.1777 25.8618 27.1777C25.8189 27.1777 25.7813 27.1509 25.7813 27.1186C25.7813 27.0918 25.7598 27.081 25.7276 27.0972C25.7007 27.1133 25.6739 27.1079 25.6739 27.081C25.6739 27.0488 25.604 27.0005 25.5127 26.9736C25.4268 26.9414 25.3033 26.8662 25.2388 26.8071C25.1743 26.748 25.0992 26.7104 25.0723 26.7266C25.0508 26.7427 25.0293 26.7266 25.0293 26.6997C25.0293 26.6675 24.9917 26.6406 24.9488 26.6406C24.9058 26.6406 24.8682 26.6138 24.8682 26.5815C24.8682 26.5547 24.8467 26.5386 24.8252 26.5547C24.7984 26.5708 24.7285 26.5332 24.6641 26.4795C24.5996 26.4204 24.5244 26.3721 24.4976 26.3721C24.4439 26.3721 24.1055 26.168 23.9712 26.0498C23.9336 26.0229 23.8799 25.9961 23.8531 25.9961C23.8262 25.9961 23.7671 25.9639 23.7242 25.9209C23.6812 25.8779 23.6006 25.835 23.5469 25.8242C23.4932 25.8135 23.4019 25.7705 23.3535 25.7275C23.3052 25.6792 23.0957 25.561 22.897 25.459C22.6983 25.3569 22.5264 25.2549 22.5157 25.2334C22.5049 25.2065 22.4619 25.1904 22.419 25.1904C22.376 25.1904 22.3438 25.1636 22.3438 25.1313C22.3438 25.1045 22.3223 25.0937 22.2901 25.1099C22.2632 25.126 22.2364 25.1152 22.2364 25.0884C22.2364 25.0561 22.1988 25.0293 22.1558 25.0293C22.1128 25.0293 22.0752 25.0078 22.0752 24.9863C22.0752 24.9595 21.9839 24.9004 21.8765 24.852C21.6831 24.7715 21.4898 24.6587 21.4307 24.5996C21.4146 24.5835 21.2373 24.4868 21.0332 24.3848C20.8291 24.2827 20.6143 24.1592 20.5606 24.1162C20.5069 24.0732 20.4478 24.041 20.4317 24.0517C20.4209 24.0571 20.3565 24.0142 20.292 23.9551C20.2276 23.896 20.1363 23.8476 20.0826 23.8476C20.0342 23.8476 19.9805 23.81 19.959 23.7671C19.9429 23.7241 19.8946 23.6865 19.8462 23.6865C19.7979 23.6865 19.7119 23.6382 19.6475 23.5791C19.524 23.4663 19.2178 23.3857 19.1265 23.4448C19.0835 23.4663 19.0674 24.8306 19.0674 27.8975C19.0674 32.8979 19.0191 32.3984 19.5293 32.6562C19.6743 32.7314 19.8033 32.8066 19.8086 32.8335C19.8194 32.855 19.8623 32.8711 19.9053 32.8711C19.9483 32.8711 19.9805 32.8979 19.9805 32.9302C19.9805 32.957 20.0074 32.9678 20.0342 32.9517C20.0664 32.9355 20.0879 32.9409 20.0879 32.9731C20.0879 33 20.1416 33.043 20.2115 33.0644C20.2759 33.0806 20.3726 33.1343 20.4263 33.1826C20.48 33.2309 20.5659 33.2739 20.6143 33.2793C20.6626 33.29 20.711 33.3223 20.7217 33.3491C20.7325 33.3813 20.7754 33.4082 20.8184 33.4082C20.8614 33.4082 20.8936 33.435 20.8936 33.4673C20.8936 33.4941 20.9204 33.5049 20.9473 33.4888C20.9795 33.4726 21.001 33.4834 21.001 33.5102C21.001 33.5425 21.0386 33.5693 21.0816 33.5693C21.1245 33.5693 21.1621 33.5962 21.1621 33.6284C21.1621 33.6553 21.1836 33.6714 21.2051 33.6553C21.232 33.6392 21.3018 33.6767 21.3662 33.7305C21.4307 33.7895 21.522 33.8379 21.5757 33.8379C21.6294 33.8379 21.71 33.8862 21.753 33.9453C21.7959 34.0044 21.8604 34.0527 21.8926 34.0527C21.9302 34.0527 21.9947 34.085 22.0323 34.1225C22.1182 34.2031 22.5157 34.3965 22.5747 34.3857C22.5962 34.3804 22.6123 34.4018 22.6123 34.4287C22.6123 34.4609 22.6499 34.4824 22.6929 34.4824C22.7359 34.4824 22.7735 34.5039 22.7735 34.5361C22.7735 34.563 22.8325 34.6006 22.9077 34.6221C22.9829 34.6382 23.042 34.6758 23.042 34.6973C23.042 34.7241 23.128 34.7725 23.23 34.8047C23.3321 34.8369 23.418 34.8852 23.418 34.9121C23.418 34.939 23.4717 34.9766 23.5362 34.998C23.6006 35.0142 23.6866 35.0679 23.7295 35.1055C23.7671 35.1484 23.8369 35.1807 23.8799 35.1807C23.9229 35.1807 23.9551 35.2075 23.9551 35.2451C23.9551 35.2773 23.9712 35.2934 23.9873 35.2773C24.0034 35.2612 24.2344 35.374 24.5083 35.5351C24.7769 35.6963 25.0186 35.8252 25.0401 35.8252C25.0616 35.8252 25.126 35.8628 25.1743 35.9058C25.2281 35.9487 25.2818 35.9809 25.2979 35.9756C25.314 35.9648 25.3838 36.0132 25.4536 36.0776C25.5235 36.1421 25.604 36.185 25.6309 36.1689C25.6524 36.1528 25.6739 36.1689 25.6739 36.1958C25.6739 36.228 25.7115 36.2549 25.7544 36.2549C25.7974 36.2549 25.835 36.2764 25.835 36.2978C25.835 36.3247 25.9209 36.373 26.023 36.416C26.125 36.459 26.211 36.5073 26.211 36.5342C26.211 36.5557 26.2432 36.5771 26.2862 36.5771C26.3291 36.5771 26.399 36.6094 26.4366 36.647C26.501 36.706 26.7373 36.835 26.8072 36.8403C26.8233 36.8457 26.8609 36.8188 26.8985 36.7812ZM27.7578 26.7695C27.8223 26.7266 27.876 26.7051 27.876 26.7212C27.876 26.7373 27.9297 26.7051 27.9942 26.646C28.0533 26.5869 28.1284 26.5493 28.1553 26.5654C28.1768 26.5815 28.1983 26.5654 28.1983 26.5386C28.1983 26.5063 28.2359 26.4795 28.2788 26.4795C28.3218 26.4795 28.3594 26.458 28.3594 26.4258C28.3594 26.3989 28.4185 26.3613 28.4937 26.3398C28.5635 26.3237 28.6494 26.2754 28.687 26.2324C28.7193 26.1894 28.7676 26.1733 28.7945 26.1894C28.8213 26.2056 28.8428 26.1894 28.8428 26.1626C28.8428 26.1304 28.8804 26.1035 28.9234 26.1035C28.9663 26.1035 29.0039 26.0766 29.0039 26.0444C29.0039 26.0176 29.0254 26.0015 29.0469 26.0176C29.0738 26.0337 29.1436 26.0068 29.1973 25.9531C29.294 25.8672 29.6216 25.6953 29.7183 25.6846C29.7398 25.6792 29.8096 25.6308 29.8687 25.5718C29.9278 25.5181 30.1372 25.3891 30.336 25.2925C30.5347 25.1904 30.7066 25.0937 30.7227 25.0723C30.7603 25.0185 31.3028 24.7178 31.4908 24.6479C31.5713 24.6157 31.6358 24.5674 31.6358 24.5405C31.6358 24.5137 31.668 24.4922 31.711 24.4922C31.7539 24.4922 31.7969 24.4761 31.8076 24.4546C31.8184 24.4277 31.9366 24.3525 32.0816 24.2773C32.2212 24.2075 32.334 24.1216 32.334 24.0947C32.334 24.0679 32.3501 24.0571 32.3662 24.0786C32.3824 24.0947 32.5542 24.0142 32.7422 23.896C32.9356 23.7778 33.1182 23.6811 33.1504 23.6704C33.188 23.665 33.2632 23.6167 33.3223 23.563C33.3867 23.5093 33.4888 23.4556 33.5533 23.4394C33.6231 23.418 33.6768 23.3857 33.6768 23.3642C33.6768 23.3374 33.7627 23.2891 33.8648 23.2568C33.9668 23.2246 34.0528 23.1709 34.0528 23.144C34.0528 23.1172 34.085 23.0957 34.1226 23.0957C34.1656 23.0957 34.2515 23.0474 34.3213 22.9883C34.3911 22.9292 34.4663 22.8808 34.4932 22.8808C34.52 22.8808 34.5684 22.854 34.606 22.8271C34.6436 22.7949 34.8047 22.7036 34.9658 22.6177C35.4009 22.3921 35.3902 22.3061 34.8584 21.9946C34.6167 21.855 34.3911 21.71 34.3589 21.6777C34.2891 21.6133 33.7842 21.3608 33.7144 21.3555C33.6929 21.3501 33.6553 21.3232 33.6338 21.291C33.5908 21.2212 33.2364 21.0278 33.1826 21.0439C33.1558 21.0493 33.1397 21.0332 33.1397 21.0063C33.1397 20.9795 33.0967 20.9473 33.0484 20.9258C32.9248 20.8882 32.7476 20.7754 32.6992 20.7056C32.6724 20.668 32.6563 20.668 32.6563 20.7056C32.6563 20.7432 32.6402 20.7432 32.6133 20.7056C32.5918 20.6787 32.4361 20.582 32.2642 20.4907C32.0923 20.4048 31.9043 20.2866 31.8452 20.2329C31.7915 20.1846 31.7325 20.1416 31.7163 20.1416C31.6519 20.1416 31.2759 19.9429 31.1846 19.8623C31.1309 19.8086 31.0611 19.7817 31.0342 19.7978C31.0127 19.814 30.9912 19.8032 30.9912 19.7764C30.9912 19.7495 30.8516 19.6582 30.6851 19.5723C30.5132 19.4863 30.3682 19.4004 30.3575 19.3789C30.3467 19.352 30.3037 19.3359 30.2608 19.3359C30.2178 19.3359 30.1856 19.3091 30.1856 19.2768C30.1856 19.25 30.1641 19.2339 30.1426 19.25C30.1158 19.2661 30.0406 19.2285 29.9815 19.1694C29.917 19.1103 29.8633 19.0781 29.8633 19.0942C29.8633 19.1157 29.7935 19.0781 29.7075 19.019C29.6216 18.9546 29.5303 18.9062 29.5034 18.9062C29.4766 18.9062 29.4068 18.8633 29.3477 18.8149C29.294 18.7612 29.1597 18.6753 29.0576 18.6269C28.7783 18.4927 28.3379 18.2402 28.3057 18.2026C28.2896 18.1811 28.1284 18.0898 27.9458 17.9932C27.6719 17.8481 27.5806 17.8267 27.4033 17.8589C27.2852 17.875 27.1402 17.9394 27.0811 17.9985C27.0166 18.0522 26.9414 18.1006 26.9146 18.1006C26.8877 18.1006 26.8286 18.1328 26.7857 18.1758C26.7427 18.2187 26.6675 18.2617 26.6084 18.2725C26.5547 18.2832 26.4634 18.3262 26.4097 18.3691C26.356 18.4121 26.3076 18.439 26.3023 18.4228C26.2969 18.4067 26.2325 18.4443 26.168 18.5088C26.1035 18.5732 25.9102 18.6914 25.7383 18.7773C25.5718 18.8579 25.3999 18.96 25.3623 18.9975C25.3247 19.0351 25.2549 19.0674 25.2119 19.0674C25.169 19.0674 25.1367 19.0889 25.1367 19.1157C25.1367 19.1426 25.0508 19.1963 24.9488 19.2285C24.8467 19.2607 24.7608 19.3091 24.7608 19.3306C24.7608 19.3467 24.6963 19.395 24.6158 19.4326C24.4761 19.4917 24.3794 19.5454 23.9229 19.8247C23.8316 19.8784 23.7403 19.9106 23.7242 19.8892C23.7027 19.873 23.6866 19.8945 23.6866 19.9429C23.6866 19.9912 23.6704 20.0288 23.649 20.0234C23.6221 20.0127 23.461 20.0933 23.2837 20.1953C23.1065 20.2974 22.9346 20.3833 22.897 20.3887C22.8648 20.394 22.7788 20.4477 22.7144 20.5122C22.6499 20.5713 22.5425 20.6411 22.4834 20.6572C22.419 20.6787 22.3599 20.7056 22.3438 20.727C22.2954 20.7861 22.1075 20.8935 21.9034 20.9849C21.7906 21.0332 21.6992 21.0923 21.6992 21.1191C21.6992 21.1406 21.667 21.1621 21.6241 21.1621C21.5811 21.1621 21.5113 21.1943 21.4737 21.2319C21.4307 21.2642 21.3018 21.3447 21.189 21.4092C20.7647 21.624 20.4961 21.7798 20.4209 21.8442C20.3833 21.8818 20.292 21.9302 20.2168 21.9463C20.147 21.9624 20.0879 22 20.0879 22.0215C20.0879 22.0483 20.0342 22.0859 19.9698 22.1074C19.7066 22.188 19.626 22.4189 19.8355 22.4834C19.8999 22.5049 19.9644 22.5371 19.9805 22.5586C19.9966 22.5747 20.1416 22.666 20.3028 22.7519C20.4639 22.8379 20.6304 22.9399 20.668 22.9722C20.7056 23.0098 20.7754 23.042 20.8184 23.042C20.8614 23.042 20.8936 23.0688 20.8936 23.0957C20.8936 23.1279 20.9258 23.1494 20.9634 23.1494C21.0064 23.1494 21.1353 23.2192 21.2534 23.3052C21.377 23.3911 21.4898 23.4502 21.5059 23.4341C21.522 23.4126 21.5381 23.4233 21.5381 23.4556C21.5381 23.4878 21.5972 23.5308 21.6724 23.5469C21.7476 23.5683 21.8067 23.6059 21.8067 23.6328C21.8067 23.665 21.8335 23.6865 21.8604 23.6865C21.8926 23.6865 22.2901 23.9067 22.7412 24.1699C23.1978 24.4385 23.5952 24.6533 23.6275 24.6533C23.6597 24.6533 23.6866 24.6694 23.6866 24.6963C23.6866 24.7178 23.8316 24.8037 24.0088 24.8896C24.1861 24.9756 24.3311 25.0669 24.3311 25.0884C24.3311 25.1099 24.3848 25.1475 24.4492 25.1689C24.5137 25.1904 24.8091 25.3462 25.0992 25.5181C25.3892 25.6953 25.6363 25.835 25.647 25.835C25.6577 25.835 25.7813 25.9101 25.9156 26.0015C26.0498 26.0928 26.1949 26.1733 26.2325 26.1787C26.2754 26.1841 26.3452 26.2217 26.3936 26.2593C26.4795 26.3291 26.6783 26.4473 26.9629 26.5976C27.0381 26.6352 27.1079 26.6782 27.1241 26.6943C27.1778 26.7534 27.4195 26.8501 27.5269 26.8501C27.586 26.8555 27.6934 26.8179 27.7578 26.7695Z" fill="black"/>
<path d="M18.3476 37.356C18.0254 37.2432 18.0039 37.1787 18.02 36.3784C18.0308 35.6856 18.0361 35.6587 18.1704 35.5244C18.2993 35.4009 18.3476 35.3848 18.584 35.4063C18.9922 35.4492 19.0566 35.5781 19.0727 36.3892C19.0781 36.8726 19.0298 37.1948 18.9385 37.2647C18.7827 37.3882 18.5464 37.4258 18.3476 37.356Z" fill="black"/>
<path d="M36.3515 37.3774C36.2978 37.3506 36.2549 37.3398 36.2549 37.356C36.2549 37.4097 36.0561 37.2002 35.9917 37.0767C35.9219 36.937 35.9111 35.938 35.9863 35.75C36.0776 35.5083 36.2334 35.3955 36.4858 35.3955C36.7436 35.3955 36.9155 35.5083 36.9961 35.7231C37.0283 35.793 37.0444 36.1206 37.039 36.4429C37.0283 37.1089 36.9639 37.2754 36.6738 37.3774C36.4751 37.4473 36.4697 37.4473 36.3515 37.3774Z" fill="black"/>
<path d="M14.9585 31.2275C14.8135 31.1523 14.5826 31.0234 14.4483 30.9375C14.314 30.8569 14.1743 30.7817 14.1421 30.7817C14.1045 30.7764 14.0723 30.7441 14.0723 30.7012C14.0723 30.6582 14.0454 30.6152 14.0078 30.6045C13.9004 30.5669 13.9327 30.1641 14.0454 30.0405C14.1905 29.8901 14.3677 29.8042 14.4859 29.8257C14.6148 29.8525 14.9961 30.0352 15.0821 30.1211C15.1197 30.1533 15.1841 30.1855 15.2217 30.1855C15.2593 30.1855 15.3614 30.2446 15.4473 30.3198C15.5279 30.3897 15.6084 30.438 15.6245 30.4272C15.6675 30.3843 15.8448 30.6313 15.8501 30.7441C15.8716 31.0127 15.8394 31.1094 15.7051 31.2329C15.5171 31.4048 15.3023 31.4048 14.9585 31.2275Z" fill="black"/>
<path d="M39.4185 31.3081C39.3271 31.2759 39.2466 31.1792 39.1982 31.0503C39.123 30.8677 39.123 30.8301 39.1982 30.6904C39.2842 30.5239 39.4238 30.3682 39.4238 30.4326C39.4238 30.4541 39.4614 30.4273 39.5044 30.3682C39.5474 30.3145 39.585 30.2822 39.585 30.3037C39.585 30.3252 39.6333 30.3037 39.6924 30.25C39.7568 30.2017 39.8105 30.1694 39.8159 30.1856C39.8213 30.2017 39.8857 30.1587 39.9609 30.0942C40.0308 30.0244 40.1328 29.9707 40.1812 29.9707C40.2349 29.9707 40.2832 29.9385 40.2993 29.9063C40.3101 29.8633 40.4121 29.8364 40.5625 29.8418C40.9868 29.8525 41.2178 30.2178 41.0298 30.5776C40.9707 30.6904 40.8149 30.814 40.772 30.7817C40.7612 30.7764 40.7344 30.7925 40.7183 30.8193C40.7021 30.8462 40.5034 30.9805 40.2778 31.1201C39.8589 31.3726 39.6924 31.4102 39.4185 31.3081Z" fill="black"/>
<path d="M12.0205 29.5303C11.9829 29.4927 11.9024 29.4551 11.8487 29.4443C11.7949 29.4336 11.7144 29.3906 11.6714 29.3477C11.6284 29.3047 11.5586 29.2725 11.5156 29.2725C11.4727 29.2725 11.4405 29.251 11.4405 29.2187C11.4405 29.1919 11.4136 29.165 11.3814 29.165C11.3491 29.165 11.2901 29.1274 11.2417 29.0845C11.1988 29.0415 11.145 29.0146 11.1182 29.0308C11.0967 29.0469 11.0484 29.02 11.0108 28.977C10.9732 28.9341 10.9195 28.8965 10.8926 28.8965C10.8657 28.8965 10.7691 28.8267 10.6831 28.7407C10.3447 28.4023 10.5542 27.876 11.0269 27.8975C11.2471 27.9082 11.6123 28.0532 11.752 28.1875C11.7896 28.2197 11.8594 28.2519 11.9024 28.2519C11.9453 28.2519 11.9776 28.2788 11.9776 28.3057C11.9776 28.3379 12.0044 28.3594 12.0313 28.3594C12.0635 28.3594 12.1172 28.3862 12.1548 28.4185C12.1924 28.4453 12.3428 28.5474 12.4878 28.644C12.7349 28.7998 12.7564 28.8374 12.7725 29.0469C12.7886 29.2402 12.7671 29.2993 12.6275 29.4336C12.4556 29.6108 12.1548 29.6538 12.0205 29.5303Z" fill="black"/>
<path d="M42.4155 29.4605C42.2866 29.3369 42.2598 29.2778 42.2544 29.0469C42.249 28.8857 42.4209 28.6279 42.5283 28.6279C42.5605 28.6279 42.5928 28.6064 42.6035 28.585C42.6143 28.5635 42.7539 28.4722 42.915 28.3916C43.0762 28.3057 43.3501 28.1553 43.5166 28.0479C43.7798 27.8921 43.8604 27.8652 44.043 27.8921C44.2524 27.9189 44.4619 28.0801 44.478 28.2197C44.4834 28.252 44.4888 28.3164 44.4941 28.3594C44.5103 28.5366 44.4082 28.7192 44.231 28.8105C44.1289 28.8696 44.043 28.9341 44.043 28.9556C44.043 28.9771 43.9893 29.0147 43.9248 29.0361C43.8604 29.0522 43.6079 29.1865 43.3662 29.3315C42.8506 29.6377 42.6411 29.6646 42.4155 29.4605Z" fill="black"/>
<path d="M14.9048 20.8399C14.7598 20.7485 14.5503 20.6411 14.4482 20.5928C14.228 20.4907 13.9111 20.1792 13.9111 20.0718C13.9111 19.8086 13.9863 19.6636 14.1797 19.5562C14.3784 19.4434 14.6631 19.4004 14.6631 19.4863C14.6631 19.5078 14.8242 19.6099 15.0283 19.7119C15.2271 19.814 15.3989 19.916 15.4043 19.9375C15.415 19.9644 15.4473 19.9805 15.4795 19.9805C15.5063 19.9805 15.603 20.0503 15.689 20.1362C15.8125 20.2598 15.8447 20.3403 15.8447 20.523C15.8447 20.9956 15.4097 21.1406 14.9048 20.8399Z" fill="black"/>
<path d="M39.4238 20.9312C39.2466 20.8398 39.1392 20.6089 39.1821 20.4048C39.2251 20.2275 39.4399 19.9805 39.5581 19.9805C39.6011 19.9805 39.6387 19.959 39.6387 19.9321C39.6387 19.9053 39.687 19.8623 39.7515 19.8462C39.8159 19.8247 39.9126 19.771 39.9663 19.7173C40.0254 19.6689 40.0898 19.6313 40.1167 19.6313C40.1382 19.6313 40.2402 19.583 40.3477 19.5293C40.5679 19.4111 40.729 19.438 40.9438 19.6206C41.1748 19.8301 41.1318 20.1953 40.8418 20.4263C40.772 20.48 40.7021 20.5229 40.6914 20.5229C40.6753 20.5229 40.4766 20.6304 40.2563 20.7593C39.8374 21.0117 39.6548 21.0493 39.4238 20.9312Z" fill="black"/>
<path d="M12.0205 19.1641C11.9829 19.1265 11.9024 19.0889 11.8487 19.0781C11.795 19.0674 11.7144 19.0244 11.6714 18.9815C11.6284 18.9385 11.564 18.9063 11.521 18.9063C11.4834 18.9063 11.4405 18.8901 11.4297 18.8687C11.4243 18.8418 11.3277 18.7827 11.2256 18.7344C10.7368 18.4873 10.5059 18.2564 10.5113 18.0147C10.5166 17.875 10.6885 17.499 10.6885 17.6333C10.6885 17.6548 10.7476 17.6333 10.8174 17.5903C10.8926 17.542 11.0161 17.5098 11.1021 17.5259C11.2793 17.5474 11.6446 17.7139 11.7735 17.8374C11.8272 17.8804 11.9776 17.9717 12.1118 18.0415C12.2408 18.106 12.3643 18.1812 12.3804 18.2134C12.4019 18.2402 12.4556 18.2617 12.5039 18.2617C12.5576 18.2617 12.6382 18.3316 12.6919 18.4175C12.9175 18.7988 12.7134 19.2285 12.2998 19.2285C12.187 19.2285 12.0581 19.1963 12.0205 19.1641Z" fill="black"/>
<path d="M42.4478 19.1372C42.147 18.874 42.2276 18.353 42.582 18.2402C42.6465 18.2187 42.7002 18.1758 42.7002 18.1489C42.7002 18.1221 42.7271 18.1006 42.7647 18.1006C42.8345 18.1006 43.5703 17.6763 43.6133 17.6118C43.6992 17.4883 44.3115 17.499 44.3115 17.6226C44.3115 17.6494 44.3545 17.7246 44.4136 17.7837C44.4673 17.8428 44.5049 17.9448 44.4995 18.0093C44.4942 18.0737 44.4834 18.1543 44.478 18.1865C44.4673 18.2778 44.2793 18.4766 44.2363 18.439C44.2202 18.4228 44.2041 18.4336 44.2041 18.4658C44.2041 18.5034 44.1665 18.5303 44.1236 18.5303C44.0806 18.5303 44.043 18.5571 44.043 18.584C44.043 18.6162 44.0161 18.6377 43.9839 18.6377C43.9517 18.6377 43.6992 18.772 43.4253 18.9331C42.8828 19.25 42.6411 19.3037 42.4478 19.1372Z" fill="black"/>
<path d="M23.5791 15.4849C23.0742 15.1841 22.9185 15.0552 22.9668 14.9746C22.9829 14.9477 22.9668 14.9316 22.9399 14.9316C22.9077 14.9316 22.8809 14.8725 22.8809 14.7974C22.8809 14.7222 22.9077 14.6631 22.9399 14.6631C22.9668 14.6631 22.9829 14.647 22.9668 14.6201C22.8647 14.4482 23.5576 14.1528 23.6812 14.3193C23.6973 14.3462 23.853 14.4429 24.0195 14.5288C24.1914 14.6201 24.3311 14.706 24.3311 14.7329C24.3311 14.7544 24.3687 14.7705 24.4116 14.7705C24.5244 14.7705 24.8037 15.0605 24.8467 15.2217C24.8843 15.3882 24.8467 15.5225 24.7017 15.6728C24.6211 15.7641 24.5352 15.791 24.3418 15.791C24.1323 15.7856 23.998 15.7319 23.5791 15.4849Z" fill="black"/>
<path d="M30.3252 15.6675C30.1372 15.501 30.1157 15.2378 30.2715 15.0229C30.3682 14.8887 30.5991 14.7437 30.6851 14.7598C30.7066 14.7651 30.7227 14.749 30.7227 14.7222C30.7227 14.6953 30.8032 14.6362 30.8999 14.5879C30.9912 14.5396 31.1094 14.4805 31.1524 14.4536C31.4102 14.314 31.4907 14.2871 31.6358 14.2871C31.7217 14.2871 31.7969 14.314 31.7969 14.3408C31.7969 14.373 31.8237 14.3945 31.856 14.3945C31.9849 14.3945 32.0923 14.5825 32.0923 14.7974C32.0923 15.0122 31.9849 15.2002 31.8613 15.2002C31.8291 15.2002 31.7969 15.2217 31.7861 15.2485C31.7808 15.2754 31.6035 15.3989 31.3941 15.5278C30.9053 15.8232 30.5615 15.8716 30.3252 15.6675Z" fill="black"/>
<path d="M21.1621 14.0347C20.9741 13.981 20.6411 13.8252 20.5498 13.7393C20.4961 13.6855 20.4263 13.6587 20.3994 13.6748C20.3779 13.6909 20.3564 13.6802 20.3564 13.6587C20.3564 13.6103 20.0986 13.4385 20.0181 13.4331C19.9966 13.4331 19.9482 13.4062 19.9106 13.374C19.5186 13.0571 19.5239 13.0679 19.5239 12.8262C19.5239 12.5308 19.6582 12.3804 19.9482 12.3589C20.1523 12.3428 20.5283 12.4717 20.668 12.606C20.7056 12.6435 20.7754 12.6758 20.8184 12.6758C20.8613 12.6758 20.8936 12.6973 20.8936 12.7187C20.8936 12.7456 20.9849 12.8047 21.0977 12.853C21.6401 13.0893 21.855 13.3579 21.7529 13.6641C21.6616 13.9434 21.4092 14.0991 21.1621 14.0347Z" fill="black"/>
<path d="M33.3813 13.8843C33.188 13.6855 33.1987 13.417 33.4028 13.2075C33.4888 13.1216 33.5854 13.0517 33.6123 13.0517C33.6445 13.0517 33.6768 13.0303 33.6875 13.0088C33.709 12.9551 34.2676 12.6113 34.2676 12.6543C34.2676 12.6704 34.3052 12.6435 34.3535 12.6006C34.3965 12.5522 34.4717 12.5146 34.5146 12.5146C34.5576 12.5146 34.5898 12.4931 34.5898 12.4663C34.5898 12.418 34.8745 12.3266 35.0088 12.3374C35.041 12.3374 35.1216 12.3428 35.1807 12.3481C35.3042 12.3535 35.4976 12.5469 35.5352 12.708C35.5781 12.8799 35.4224 13.1753 35.2183 13.2934C35.127 13.3472 35.0356 13.4062 35.0195 13.4223C35.0034 13.4385 34.8477 13.5298 34.6704 13.6157C34.4932 13.707 34.3374 13.7876 34.3213 13.8037C34.085 14.0508 33.5962 14.0937 33.3813 13.8843Z" fill="black"/>
<path d="M47.6523 38.8062C47.6523 38.7202 47.6631 38.688 47.6792 38.7417C47.6899 38.7901 47.6899 38.8652 47.6792 38.9028C47.6631 38.9351 47.6523 38.8975 47.6523 38.8062Z" fill="black"/>
<path d="M47.6577 36.6846C47.6577 36.5503 47.6685 36.4966 47.6792 36.5664C47.6899 36.6309 47.6899 36.7383 47.6792 36.8081C47.6685 36.8726 47.6577 36.8189 47.6577 36.6846Z" fill="black"/>
<path d="M47.647 22.8486C47.647 22.7896 47.6631 22.7735 47.6792 22.8164C47.6953 22.854 47.69 22.9024 47.6738 22.9185C47.6577 22.94 47.6416 22.9077 47.647 22.8486Z" fill="black"/>
<path d="M47.647 20.539C47.647 20.48 47.6631 20.4639 47.6792 20.5068C47.6953 20.5444 47.69 20.5928 47.6738 20.6089C47.6577 20.6304 47.6416 20.5981 47.647 20.539Z" fill="black"/>
<path d="M47.6577 19.4971C47.6577 19.3628 47.6685 19.3091 47.6792 19.3789C47.6899 19.4434 47.6899 19.5508 47.6792 19.6206C47.6685 19.6851 47.6577 19.6314 47.6577 19.4971Z" fill="black"/>
<path d="M47.647 19.0352C47.647 18.9761 47.6631 18.96 47.6792 19.0029C47.6953 19.0405 47.69 19.0889 47.6738 19.105C47.6577 19.1265 47.6416 19.0943 47.647 19.0352Z" fill="black"/>
<path d="M27.4356 4.3667C27.4678 4.35596 27.5323 4.35596 27.5699 4.3667C27.6021 4.38281 27.5752 4.39355 27.5 4.39355C27.4248 4.39355 27.398 4.38281 27.4356 4.3667Z" fill="black"/>
</svg>
